<?xml version="1.0" standalone="no"?>
<!DOCTYPE svg PUBLIC "-//W3C//DTD SVG 20010904//EN"
 "http://www.w3.org/TR/2001/REC-SVG-20010904/DTD/svg10.dtd">
<svg version="1.0" xmlns="http://www.w3.org/2000/svg"
 width="286.000000pt" height="297.000000pt" viewBox="0 0 286.000000 297.000000"
 preserveAspectRatio="xMidYMid meet">

<g transform="translate(0.000000,297.000000) scale(0.100000,-0.100000)"
fill="#000000" stroke="none">
<path d="M930 2675 c-107 -24 -137 -35 -196 -73 -32 -21 -66 -45 -74 -54 -24
-23 -56 -38 -84 -38 -14 0 -26 -4 -26 -8 0 -5 -10 -8 -22 -8 -21 1 -23 -4 -23
-45 0 -37 -6 -55 -31 -86 -38 -47 -104 -175 -132 -258 -21 -61 -32 -111 -53
-245 -12 -80 -5 -347 12 -450 5 -30 14 -88 18 -129 5 -40 13 -76 19 -80 5 -3
24 -40 42 -81 64 -148 157 -292 218 -338 55 -41 147 -132 147 -145 1 -7 6 -11
13 -9 7 1 29 -8 50 -21 47 -30 195 -97 214 -97 7 0 22 -6 33 -14 11 -7 43 -16
70 -19 28 -3 86 -13 130 -21 197 -38 503 -30 655 16 149 45 301 135 323 190 3
8 6 5 6 -6 1 -12 6 -16 15 -13 10 4 13 1 9 -9 -3 -7 -1 -14 5 -14 16 0 52 69
45 87 -4 11 -3 14 5 9 8 -5 10 -2 6 8 -4 10 -1 16 7 16 11 0 11 3 -1 10 -9 6
-11 10 -3 10 7 0 10 7 6 15 -3 9 -1 15 5 13 5 -2 28 17 50 42 61 70 124 257
142 421 32 302 -11 645 -102 820 -48 94 -174 234 -218 244 -16 4 -34 13 -38
21 -6 11 -17 13 -35 9 -15 -4 -25 -10 -23 -14 3 -4 12 -47 20 -96 20 -113 41
-145 159 -239 52 -41 106 -88 120 -106 29 -34 57 -115 57 -165 0 -44 -27 -128
-49 -156 -18 -23 -18 -22 -23 85 -3 71 -9 110 -17 116 -7 4 -12 9 -10 11 5 9
-13 49 -21 44 -4 -3 -7 3 -6 13 0 9 -5 16 -12 14 -8 -1 -11 2 -8 7 6 9 -33 43
-73 66 -10 6 -12 4 -6 -6 5 -8 -4 -2 -18 12 -27 26 -162 77 -173 66 -4 -3 7
-9 22 -13 16 -4 38 -14 48 -23 11 -9 16 -10 12 -4 -5 9 -2 11 9 7 12 -5 7 -12
-22 -30 -21 -13 -44 -24 -52 -24 -9 0 -12 -10 -9 -34 3 -24 0 -32 -9 -29 -7 3
-11 9 -8 13 5 8 -45 -3 -63 -14 -5 -3 -18 3 -29 14 -34 31 -165 47 -146 17 4
-6 1 -7 -6 -2 -9 5 -10 10 -2 18 7 7 4 14 -12 21 -31 16 -34 44 -5 56 19 9 16
9 -15 5 -21 -3 -59 -15 -84 -26 -25 -11 -47 -18 -49 -16 -2 2 12 30 31 61 19
32 35 63 35 68 0 5 -16 0 -35 -12 -19 -12 -35 -17 -35 -11 0 6 5 11 11 11 5 0
20 21 31 48 18 39 21 65 19 154 -1 72 4 121 13 150 9 23 14 43 13 44 -16 10
-108 55 -209 103 -143 67 -245 102 -367 125 -96 18 -135 19 -211 1z m-102
-176 c-3 -8 -7 -3 -11 10 -4 17 -3 21 5 13 5 -5 8 -16 6 -23z m620 -6 c94 -70
82 -217 -22 -264 -52 -23 -80 -23 -133 0 -116 53 -115 225 1 277 41 19 120 12
154 -13z m-811 11 c-3 -3 -12 -4 -19 -1 -8 3 -5 6 6 6 11 1 17 -2 13 -5z m151
-19 c-2 -5 -14 -8 -28 -7 -21 2 -22 1 -10 -8 13 -10 12 -11 -4 -6 -28 9 -92
-4 -74 -16 8 -5 -1 -7 -27 -3 -27 3 -33 2 -20 -3 18 -8 17 -9 -7 -14 -15 -3
-25 -1 -22 3 3 5 -4 9 -15 9 -12 0 -21 5 -21 10 0 6 12 10 26 10 14 0 22 4 19
10 -3 5 0 8 7 5 7 -2 40 2 73 9 67 15 107 16 103 1z m-71 -31 c-3 -4 4 -15 16
-25 14 -12 16 -17 6 -13 -9 3 -44 -2 -77 -10 -33 -9 -70 -16 -82 -16 -40 0
-11 17 52 30 35 7 67 19 71 27 4 7 11 13 14 13 4 0 4 -3 0 -6z m74 -31 c13
-16 12 -17 -3 -4 -10 7 -18 15 -18 17 0 8 8 3 21 -13z m199 -13 c0 -5 -2 -10
-4 -10 -3 0 -8 5 -11 10 -3 6 -1 10 4 10 6 0 11 -4 11 -10z m-185 -19 c-6 -4
-48 -16 -95 -25 -47 -10 -95 -20 -106 -23 -13 -3 -23 1 -27 11 -4 9 -1 13 6
11 7 -3 48 4 92 14 87 21 145 26 130 12z m22 -57 c-3 -3 -12 -4 -19 -1 -8 3
-5 6 6 6 11 1 17 -2 13 -5z m-222 -24 c3 -6 -1 -7 -9 -4 -18 7 -21 14 -7 14 6
0 13 -4 16 -10z m400 -19 c0 -22 -34 -39 -44 -22 -5 8 -7 20 -4 28 7 18 48 13
48 -6z m-291 -21 c-6 -6 -10 -3 -10 10 0 13 4 16 10 10 7 -7 7 -13 0 -20z
m390 -59 c3 -5 -1 -15 -10 -22 -13 -10 -17 -10 -24 1 -5 8 -6 18 -4 22 7 11
31 10 38 -1z m-512 -68 c50 -49 58 -72 34 -92 -8 -6 -19 -25 -26 -41 -13 -31
-104 -90 -140 -90 -19 0 -100 97 -100 120 0 21 139 150 162 150 13 0 42 -19
70 -47z m198 -38 c7 -9 35 -25 61 -37 54 -22 115 -83 125 -123 3 -14 10 -25
14 -25 4 0 13 -14 20 -30 12 -28 11 -33 -11 -53 -13 -12 -25 -21 -26 -20 -2 1
-10 0 -18 -3 -26 -10 -42 3 -52 43 -8 35 -13 40 -65 58 -75 27 -115 66 -124
121 -9 60 1 84 35 84 16 0 34 -7 41 -15z m895 -175 c3 -5 1 -10 -4 -10 -6 0
-11 5 -11 10 0 6 2 10 4 10 3 0 8 -4 11 -10z m-55 -19 c0 -5 -7 -12 -16 -15
-14 -5 -15 -4 -4 9 14 17 20 19 20 6z m640 -16 c0 -2 -6 -8 -13 -14 -10 -8
-14 -7 -14 2 0 8 6 14 14 14 7 0 13 -1 13 -2z m-600 -9 c0 -2 -8 -10 -17 -17
-16 -13 -17 -12 -4 4 13 16 21 21 21 13z m204 -14 c3 -5 -1 -9 -9 -9 -8 0 -15
4 -15 9 0 4 4 8 9 8 6 0 12 -4 15 -8z m435 -5 c-2 -1 -13 -9 -24 -17 -19 -14
-19 -14 -6 3 7 9 18 17 24 17 6 0 8 -1 6 -3z m-192 -49 c2 -18 1 -19 -6 -8 -5
8 -7 18 -5 22 3 4 0 8 -5 8 -6 0 -11 5 -11 12 0 21 23 -9 27 -34z m-541 20 c4
-7 4 -10 -1 -6 -4 4 -26 -6 -49 -23 l-41 -31 40 36 c46 41 42 39 51 24z m-517
-31 c0 -8 -2 -8 -6 1 -4 10 -8 10 -21 0 -15 -12 -16 -11 -3 4 14 19 32 15 30
-5z m-79 -7 c0 -5 -5 -10 -11 -10 -5 0 -7 5 -4 10 3 6 8 10 11 10 2 0 4 -4 4
-10z m1207 -62 c-3 -8 -6 -5 -6 6 -1 11 2 17 5 13 3 -3 4 -12 1 -19z m-1067
-3 c7 -9 8 -15 2 -15 -5 0 -12 7 -16 15 -3 8 -4 15 -2 15 2 0 9 -7 16 -15z
m354 7 c3 -5 -1 -9 -9 -9 -8 0 -12 4 -9 9 3 4 7 8 9 8 2 0 6 -4 9 -8z m-537
-56 c17 -1 29 -4 27 -7 -2 -3 40 -18 94 -32 53 -15 158 -45 232 -67 149 -44
154 -45 144 -28 -4 7 -3 8 5 4 6 -4 9 -11 7 -15 -5 -7 205 -68 213 -62 12 9
21 -35 21 -111 l0 -86 35 -12 c19 -6 39 -9 45 -5 5 3 10 2 10 -3 0 -13 226
-75 241 -66 7 4 9 3 6 -3 -9 -14 143 -56 169 -47 13 4 15 3 6 -3 -8 -7 31 -23
123 -52 75 -24 134 -45 132 -47 -2 -2 -171 45 -376 106 -204 60 -376 110 -381
110 -6 0 -10 -68 -10 -169 0 -175 -8 -221 -36 -221 -29 0 -339 94 -346 105 -4
5 -8 74 -8 152 0 78 -3 149 -6 157 -7 18 -137 61 -154 51 -6 -4 -10 -61 -10
-148 0 -78 -4 -147 -8 -153 -5 -8 -45 0 -132 25 -69 20 -131 40 -137 44 -10 6
-13 76 -13 291 0 304 2 314 50 300 14 -5 39 -8 57 -8z m1190 -18 c-3 -8 -6 -5
-6 6 -1 11 2 17 5 13 3 -3 4 -12 1 -19z m-1558 -15 c96 -72 94 -204 -5 -260
-121 -70 -265 43 -225 176 28 95 153 140 230 84z m516 17 c-3 -5 -12 -10 -18
-10 -7 0 -6 4 3 10 19 12 23 12 15 0z m325 0 c0 -5 -2 -10 -4 -10 -3 0 -8 5
-11 10 -3 6 -1 10 4 10 6 0 11 -4 11 -10z m761 -13 c-10 -9 -11 -8 -5 6 3 10
9 15 12 12 3 -3 0 -11 -7 -18z m-564 -19 c-3 -7 -5 -2 -5 12 0 14 2 19 5 13 2
-7 2 -19 0 -25z m-440 5 c0 -9 -4 -10 -14 -2 -7 6 -13 12 -13 14 0 1 6 2 13 2
8 0 14 -6 14 -14z m71 -9 c36 -17 37 -20 20 -30 -7 -4 -10 -4 -6 1 4 4 -4 14
-18 22 -22 11 -30 11 -43 1 -14 -12 -14 -11 -2 5 16 21 11 20 49 1z m397 -132
c-3 -3 -11 0 -18 7 -9 10 -8 11 6 5 10 -3 15 -9 12 -12z m552 -14 c-3 -8 -6
-5 -6 6 -1 11 2 17 5 13 3 -3 4 -12 1 -19z m23 -53 c0 -5 -5 -3 -10 5 -5 8
-10 20 -10 25 0 6 5 3 10 -5 5 -8 10 -19 10 -25z m-243 -37 c-3 -8 -6 -5 -6 6
-1 11 2 17 5 13 3 -3 4 -12 1 -19z m394 -55 c-8 -15 -10 -15 -11 -2 0 17 10
32 18 25 2 -3 -1 -13 -7 -23z m-30 -100 c-12 -20 -14 -14 -5 12 4 9 9 14 11
11 3 -2 0 -13 -6 -23z m-1774 2 c26 -18 39 -64 22 -79 -9 -8 -10 -7 -6 7 9 23
-12 65 -35 73 -54 17 -99 -31 -76 -81 12 -27 47 -41 73 -31 9 3 13 2 10 -4
-11 -18 -56 -10 -80 15 -30 30 -31 54 -4 89 23 30 63 34 96 11z m1586 -54 c-2
-6 2 -11 9 -11 6 0 9 -3 6 -6 -4 -3 -17 2 -30 10 -14 9 -28 13 -33 9 -4 -5 -5
-3 -2 3 8 14 53 10 50 -5z m-73 -7 c0 -2 -7 -4 -15 -4 -8 0 -15 4 -15 10 0 5
7 7 15 4 8 -4 15 -8 15 -10z m133 -11 c-7 -2 -19 -2 -25 0 -7 3 -2 5 12 5 14
0 19 -2 13 -5z m-1388 -183 c-3 -5 -1 -10 4 -10 6 0 11 -7 11 -15 0 -8 -5 -15
-11 -15 -5 0 -7 5 -4 10 4 6 3 10 -2 9 -20 -3 -25 2 -13 16 14 17 24 20 15 5z
m-143 -31 c-11 -4 -25 -16 -31 -26 -6 -10 -11 -13 -11 -8 0 20 34 53 49 47 11
-4 9 -7 -7 -13z m192 3 c3 -5 -1 -9 -9 -9 -8 0 -12 4 -9 9 3 4 7 8 9 8 2 0 6
-4 9 -8z m-60 -14 c14 -6 28 -19 32 -30 3 -10 9 -16 13 -14 4 3 8 -1 8 -9 0
-8 -4 -12 -9 -9 -4 3 -8 -4 -8 -15 0 -28 -35 -61 -64 -61 -56 0 -105 90 -68
123 32 28 59 32 96 15z m-124 -62 c0 -3 -4 -8 -10 -11 -5 -3 -10 -1 -10 4 0 6
5 11 10 11 6 0 10 -2 10 -4z m203 -65 l-6 -23 -13 23 c-18 33 -17 47 2 23 14
-18 15 -18 9 6 -5 19 -4 21 4 9 6 -8 7 -26 4 -38z m-162 -8 c13 -16 12 -17 -3
-4 -10 7 -18 15 -18 17 0 8 8 3 21 -13z m-74 -15 c-3 -8 -6 -5 -6 6 -1 11 2
17 5 13 3 -3 4 -12 1 -19z m1646 10 c-2 -5 -10 -8 -18 -8 -8 0 -16 3 -18 8 -3
4 5 7 18 7 13 0 21 -3 18 -7z m-14 -32 c11 -7 12 -6 6 5 -8 12 -6 12 8 0 17
-13 19 -44 4 -68 -5 -8 -17 -9 -36 -3 -17 5 -33 4 -39 -2 -6 -6 -12 -6 -17 3
-5 7 -4 10 3 5 13 -8 32 24 32 52 0 21 14 23 39 8z m-1445 -34 c3 -5 -1 -9 -9
-9 -8 0 -12 4 -9 9 3 4 7 8 9 8 2 0 6 -4 9 -8z m-11 -37 c-3 -9 -8 -14 -10
-11 -3 3 -2 9 2 15 9 16 15 13 8 -4z"/>
<path d="M1289 2489 c-48 -28 -69 -66 -69 -128 0 -42 5 -56 30 -85 55 -62 139
-71 198 -21 40 33 56 76 49 131 -11 100 -119 154 -208 103z m101 -64 c84 -51
85 -53 44 -113 -39 -59 -31 -59 -132 5 -33 22 -52 40 -48 48 12 31 57 95 67
95 6 0 37 -16 69 -35z"/>
<path d="M1287 2403 c-22 -36 -26 -48 -15 -54 7 -4 38 -23 68 -43 l55 -34 27
41 c15 23 28 47 28 53 0 11 -110 84 -127 84 -4 0 -21 -21 -36 -47z m60 -12 c8
-23 18 -30 44 -34 l34 -4 -36 -1 c-31 -2 -37 2 -52 33 -9 19 -13 35 -9 35 4 0
13 -13 19 -29z"/>
<path d="M965 2291 c-7 -12 12 -24 25 -16 11 7 4 25 -10 25 -5 0 -11 -4 -15
-9z"/>
<path d="M1145 1520 c8 -13 142 -52 163 -47 20 5 20 4 -81 36 -75 23 -91 26
-82 11z"/>
<path d="M435 1656 c-90 -41 -120 -139 -64 -217 61 -87 193 -75 241 21 37 73
11 150 -62 188 -50 25 -73 27 -115 8z m40 -94 c-7 -37 16 -75 39 -66 17 7 40
-22 32 -41 -8 -23 -50 -18 -80 10 -46 42 -60 109 -30 140 25 25 47 1 39 -43z"/>
<path d="M435 1590 c-23 -37 36 -140 81 -140 13 0 24 4 24 8 0 15 -22 31 -35
25 -20 -7 -46 40 -43 77 3 33 -14 51 -27 30z"/>
<path d="M1960 2476 c0 -2 8 -10 18 -17 15 -13 16 -12 3 4 -13 16 -21 21 -21
13z"/>
<path d="M1990 2435 c0 -5 5 -17 10 -25 5 -8 10 -10 10 -5 0 6 -5 17 -10 25
-5 8 -10 11 -10 5z"/>
<path d="M2011 2363 c0 -12 -10 -27 -21 -33 -25 -13 -27 -71 -4 -94 36 -36 94
-9 94 44 0 30 -22 60 -45 60 -7 0 -16 10 -18 23 l-4 22 -2 -22z"/>
<path d="M1821 2196 c-9 -10 -5 -13 19 -14 35 -1 37 3 11 17 -14 8 -22 7 -30
-3z"/>
<path d="M2090 1944 c0 -8 5 -12 10 -9 6 3 10 10 10 16 0 5 -4 9 -10 9 -5 0
-10 -7 -10 -16z"/>
</g>
</svg>
